<?xml version="1.0" encoding="UTF-8" standalone="no"?>
<svg
   version="1.1"
   viewBox="0 0 24 24"
   xmlns="http://www.w3.org/2000/svg">
  <path
     d="m20 0h-16v2h16zm-16 24h16v-2h-16zm16-20h-16c-1.1 0-2 0.9-2 2v12c0 1.1 0.9 2 2 2h16c1.1 0 2-0.9 2-2v-12c0-1.1-0.9-2-2-2z"
     opacity=".54" />
  <path
     d="m12 6.75c-1.24 0-2.25 1.01-2.25 2.25s1.01 2.25 2.25 2.25 2.25-1.01 2.25-2.25-1.01-2.25-2.25-2.25zm0 6.25c-1.67 0-5 0.83-5 2.5v1.5h10v-1.5c0-1.67-3.33-2.5-5-2.5z"
     fill="#fff"
     fill-rule="evenodd"
     style="paint-order:markers stroke fill" />
</svg>
